<svg width="32" height="32" viewBox="0 0 32 32" fill="none" xmlns="http://www.w3.org/2000/svg">
<path d="M12.288 8.063C12.2839 7.02342 13.1234 6.18392 14.1629 6.18794L22.6335 6.22069C23.6731 6.22471 24.5191 7.07072 24.5232 8.11031L24.5786 22.2279C24.5827 23.2674 23.7433 24.1069 22.7037 24.1029L14.2331 24.0702C13.1936 24.0661 12.3475 23.2201 12.3434 22.1805L12.288 8.063Z" fill="#434B52"/>
<path fill-rule="evenodd" clip-rule="evenodd" d="M22.6372 7.16186L14.1666 7.12911C13.6468 7.1271 13.2271 7.54685 13.2292 8.06664L13.2846 22.1842C13.2866 22.704 13.7097 23.127 14.2295 23.129L22.7 23.1617C23.2198 23.1638 23.6395 22.744 23.6375 22.2242L23.582 8.10667C23.58 7.58688 23.157 7.16387 22.6372 7.16186ZM14.1629 6.18794C13.1234 6.18392 12.2839 7.02342 12.288 8.063L12.3434 22.1805C12.3475 23.2201 13.1936 24.0661 14.2331 24.0702L22.7037 24.1029C23.7433 24.1069 24.5827 23.2674 24.5786 22.2279L24.5232 8.11031C24.5191 7.07072 23.6731 6.22471 22.6335 6.22069L14.1629 6.18794Z" fill="#29292E"/>
<path fill-rule="evenodd" clip-rule="evenodd" d="M4.76128 10.6918C3.71613 11.0589 3.17153 12.1971 3.54489 13.2342L8.40966 26.7466C8.78301 27.7837 9.93295 28.3268 10.9781 27.9597L19.1812 25.0785C20.2263 24.7114 20.7709 23.5731 20.3976 22.5361L15.5328 9.02361C15.1595 7.98656 14.0095 7.44345 12.9644 7.81055L4.76128 10.6918Z" fill="white"/>
<path fill-rule="evenodd" clip-rule="evenodd" d="M5.08009 11.5773C4.52117 11.7736 4.23711 12.3785 4.43289 12.9223L9.29765 26.4347C9.49343 26.9785 10.1004 27.2705 10.6593 27.0742L18.8624 24.193C19.4213 23.9966 19.7054 23.3918 19.5096 22.848L14.6448 9.3355C14.449 8.7917 13.8421 8.49977 13.2832 8.69608L5.08009 11.5773ZM3.54489 13.2342C3.17153 12.1971 3.71613 11.0589 4.76128 10.6918L12.9644 7.81055C14.0095 7.44345 15.1595 7.98656 15.5328 9.02361L20.3976 22.5361C20.7709 23.5731 20.2263 24.7114 19.1812 25.0785L10.9781 27.9597C9.93295 28.3268 8.78301 27.7837 8.40966 26.7466L3.54489 13.2342Z" fill="#29292E"/>
<path d="M7.38867 15.1653L7.35756 14.5888L8.22858 14.2829L8.57295 14.7493L9.3128 14.4895L7.49045 12.137L6.55831 12.4644L6.64882 15.4252L7.38867 15.1653ZM7.32586 14.0067L7.27151 13.019L7.29188 13.0119L7.88107 13.8117L7.32586 14.0067Z" fill="#FF523F"/>
<path d="M11.602 20.0801L12.5916 21.1519C12.8571 21.4396 13.3363 21.2768 13.3669 20.8885L13.4812 19.4416C13.4899 19.3297 13.5408 19.2255 13.6231 19.1499L14.6973 18.1629C14.9823 17.9011 14.8184 17.4236 14.4312 17.3872L12.925 17.2464C12.8131 17.2358 12.709 17.184 12.6331 17.1008L11.6881 16.0645C11.4234 15.7742 10.9418 15.9362 10.911 16.3259L10.7974 17.7638C10.7887 17.8758 10.7377 17.9799 10.6554 18.0555L9.58898 19.0359C9.30269 19.2988 9.46929 19.7784 9.85853 19.8118L11.3088 19.9363C11.421 19.9458 11.5256 19.9971 11.602 20.0801Z" fill="#FF523F"/>
</svg>
