<svg width="32" height="32" viewBox="0 0 32 32" fill="none" xmlns="http://www.w3.org/2000/svg">
<path d="M16 27.2943C22.2376 27.2943 27.2941 22.2377 27.2941 16.0002C27.2941 9.7626 22.2376 4.70605 16 4.70605C9.76242 4.70605 4.70587 9.7626 4.70587 16.0002C4.70587 22.2377 9.76242 27.2943 16 27.2943Z" fill="#FFD059"/>
<path fill-rule="evenodd" clip-rule="evenodd" d="M16 26.3531C21.7178 26.3531 26.3529 21.7179 26.3529 16.0002C26.3529 10.2824 21.7178 5.64723 16 5.64723C10.2822 5.64723 5.64705 10.2824 5.64705 16.0002C5.64705 21.7179 10.2822 26.3531 16 26.3531ZM27.2941 16.0002C27.2941 22.2377 22.2376 27.2943 16 27.2943C9.76242 27.2943 4.70587 22.2377 4.70587 16.0002C4.70587 9.7626 9.76242 4.70605 16 4.70605C22.2376 4.70605 27.2941 9.7626 27.2941 16.0002Z" fill="#29292E"/>
<path d="M13.8823 13.6471C13.8823 14.4268 13.2503 15.0589 12.4706 15.0589C11.6909 15.0589 11.0588 14.4268 11.0588 13.6471C11.0588 12.8674 11.6909 12.2354 12.4706 12.2354C13.2503 12.2354 13.8823 12.8674 13.8823 13.6471Z" fill="#29292E"/>
<path d="M20.9412 13.6471C20.9412 14.4268 20.3091 15.0589 19.5294 15.0589C18.7497 15.0589 18.1176 14.4268 18.1176 13.6471C18.1176 12.8674 18.7497 12.2354 19.5294 12.2354C20.3091 12.2354 20.9412 12.8674 20.9412 13.6471Z" fill="#29292E"/>
<path d="M11.2941 18.8241C11.2941 18.5642 11.5048 18.3535 11.7647 18.3535H20.2353C20.4952 18.3535 20.7059 18.5642 20.7059 18.8241C20.7059 19.084 20.4952 19.2947 20.2353 19.2947H11.7647C11.5048 19.2947 11.2941 19.084 11.2941 18.8241Z" fill="#29292E"/>
</svg>
