<svg width="32" height="32" viewBox="0 0 32 32" fill="none" xmlns="http://www.w3.org/2000/svg">
<path d="M4.70587 12.7056C4.70587 11.666 5.54863 10.8232 6.58822 10.8232H25.4118C26.4513 10.8232 27.2941 11.666 27.2941 12.7056V22.5879C27.2941 23.6275 26.4513 24.4703 25.4118 24.4703H6.58822C5.54863 24.4703 4.70587 23.6275 4.70587 22.5879V12.7056Z" fill="#12B886"/>
<path fill-rule="evenodd" clip-rule="evenodd" d="M25.4118 11.7644H6.58822C6.06843 11.7644 5.64705 12.1858 5.64705 12.7056V22.5879C5.64705 23.1077 6.06843 23.5291 6.58822 23.5291H25.4118C25.9315 23.5291 26.3529 23.1077 26.3529 22.5879V12.7056C26.3529 12.1858 25.9315 11.7644 25.4118 11.7644ZM6.58822 10.8232C5.54863 10.8232 4.70587 11.666 4.70587 12.7056V22.5879C4.70587 23.6275 5.54863 24.4703 6.58822 24.4703H25.4118C26.4513 24.4703 27.2941 23.6275 27.2941 22.5879V12.7056C27.2941 11.666 26.4513 10.8232 25.4118 10.8232H6.58822Z" fill="#29292E"/>
<path d="M8.35179 8.72891L7.52942 11.059L23.7647 11.2943L10.644 7.54547C9.6872 7.27211 8.68296 7.7906 8.35179 8.72891Z" fill="#099268"/>
<path fill-rule="evenodd" clip-rule="evenodd" d="M10.5146 7.99794C9.79706 7.79292 9.04388 8.18179 8.79551 8.88552L8.19114 10.5979L20.2249 10.7723L10.5146 7.99794ZM7.90799 8.57227C8.32195 7.39939 9.57725 6.75128 10.7732 7.09297L23.8939 10.8418L23.7579 11.7648L6.86761 11.52L7.90799 8.57227Z" fill="#29292E"/>
<path fill-rule="evenodd" clip-rule="evenodd" d="M16.2353 21.1768C18.1845 21.1768 19.7647 19.5966 19.7647 17.6473C19.7647 15.6981 18.1845 14.1179 16.2353 14.1179C14.2861 14.1179 12.7059 15.6981 12.7059 17.6473C12.7059 19.5966 14.2861 21.1768 16.2353 21.1768ZM16.2353 22.1179C18.7043 22.1179 20.7059 20.1164 20.7059 17.6473C20.7059 15.1783 18.7043 13.1768 16.2353 13.1768C13.7663 13.1768 11.7647 15.1783 11.7647 17.6473C11.7647 20.1164 13.7663 22.1179 16.2353 22.1179Z" fill="#E6FCF5"/>
<path d="M16.1163 19.8536H16.3989V19.4589C17.1745 19.4158 17.6243 19.0143 17.6261 18.4059C17.6243 17.8164 17.1745 17.5079 16.5695 17.3718L16.3989 17.3304V16.4566C16.6799 16.4928 16.8505 16.6479 16.8746 16.8926H17.5778C17.5692 16.3014 17.1073 15.8826 16.3989 15.8378V15.4414H16.1163V15.8395C15.4251 15.893 14.9339 16.3032 14.9374 16.8995C14.9356 17.42 15.301 17.7165 15.8974 17.8612L16.1163 17.9147V18.8385C15.7974 18.8006 15.5751 18.6248 15.5544 18.3128H14.8443C14.8615 19.0246 15.3476 19.4158 16.1163 19.4589V19.8536ZM15.6871 16.8512C15.6888 16.6513 15.8405 16.4979 16.1163 16.4583V17.258C15.8732 17.1856 15.6837 17.0701 15.6871 16.8512ZM16.3989 18.8367V17.987C16.7092 18.0767 16.8849 18.1887 16.8867 18.4024C16.8849 18.6316 16.6988 18.7971 16.3989 18.8367Z" fill="#E6FCF5"/>
</svg>
