<svg width="32" height="32" viewBox="0 0 32 32" fill="none" xmlns="http://www.w3.org/2000/svg">
<path d="M5.64703 7.52981C5.64703 6.49022 6.48979 5.64746 7.52939 5.64746H24.4706C25.5102 5.64746 26.3529 6.49022 26.3529 7.52981V24.471C26.3529 25.5106 25.5102 26.3533 24.4706 26.3533H7.52939C6.48979 26.3533 5.64703 25.5106 5.64703 24.471V7.52981Z" fill="white"/>
<path fill-rule="evenodd" clip-rule="evenodd" d="M24.4706 6.58864H7.52939C7.00959 6.58864 6.58821 7.01002 6.58821 7.52981V24.471C6.58821 24.9908 7.00959 25.4122 7.52939 25.4122H24.4706C24.9904 25.4122 25.4117 24.9908 25.4117 24.471V7.52981C25.4117 7.01002 24.9904 6.58864 24.4706 6.58864ZM7.52939 5.64746C6.48979 5.64746 5.64703 6.49022 5.64703 7.52981V24.471C5.64703 25.5106 6.48979 26.3533 7.52939 26.3533H24.4706C25.5102 26.3533 26.3529 25.5106 26.3529 24.471V7.52981C26.3529 6.49022 25.5102 5.64746 24.4706 5.64746H7.52939Z" fill="#29292E"/>
<path d="M13.5395 20.7058H15.5469L19.4715 12.9981V11.3896H12.8961V12.9724H17.4641V13.0367L13.5395 20.7058Z" fill="#393E44"/>
</svg>
