<svg width="32" height="32" viewBox="0 0 32 32" fill="none" xmlns="http://www.w3.org/2000/svg">
<path fill-rule="evenodd" clip-rule="evenodd" d="M7.05884 23.9999C7.05884 23.74 7.25899 23.5293 7.5059 23.5293H24.4941C24.741 23.5293 24.9412 23.74 24.9412 23.9999C24.9412 24.2598 24.741 24.4705 24.4941 24.4705H7.5059C7.25899 24.4705 7.05884 24.2598 7.05884 23.9999Z" fill="#29292E"/>
<path d="M8.47061 20.7056C8.47061 19.666 9.31337 18.8232 10.353 18.8232H21.6471C22.6867 18.8232 23.5294 19.666 23.5294 20.7056V22.5879C23.5294 23.6275 22.6867 24.4703 21.6471 24.4703H10.353C9.31337 24.4703 8.47061 23.6275 8.47061 22.5879V20.7056Z" fill="#A73FFF"/>
<path fill-rule="evenodd" clip-rule="evenodd" d="M21.6471 19.7644H10.353C9.83317 19.7644 9.41179 20.1858 9.41179 20.7056V22.5879C9.41179 23.1077 9.83317 23.5291 10.353 23.5291H21.6471C22.1669 23.5291 22.5883 23.1077 22.5883 22.5879V20.7056C22.5883 20.1858 22.1669 19.7644 21.6471 19.7644ZM10.353 18.8232C9.31337 18.8232 8.47061 19.666 8.47061 20.7056V22.5879C8.47061 23.6275 9.31337 24.4703 10.353 24.4703H21.6471C22.6867 24.4703 23.5294 23.6275 23.5294 22.5879V20.7056C23.5294 19.666 22.6867 18.8232 21.6471 18.8232H10.353Z" fill="#29292E"/>
<path d="M8.47061 15.9995C8.47061 14.9599 9.31337 14.1172 10.353 14.1172H21.6471C22.6867 14.1172 23.5294 14.9599 23.5294 15.9995V17.8819C23.5294 18.9215 22.6867 19.7642 21.6471 19.7642H10.353C9.31337 19.7642 8.47061 18.9215 8.47061 17.8819V15.9995Z" fill="#C175FF"/>
<path fill-rule="evenodd" clip-rule="evenodd" d="M21.6471 15.0584H10.353C9.83317 15.0584 9.41179 15.4797 9.41179 15.9995V17.8819C9.41179 18.4017 9.83317 18.8231 10.353 18.8231H21.6471C22.1669 18.8231 22.5883 18.4017 22.5883 17.8819V15.9995C22.5883 15.4797 22.1669 15.0584 21.6471 15.0584ZM10.353 14.1172C9.31337 14.1172 8.47061 14.9599 8.47061 15.9995V17.8819C8.47061 18.9215 9.31337 19.7642 10.353 19.7642H21.6471C22.6867 19.7642 23.5294 18.9215 23.5294 17.8819V15.9995C23.5294 14.9599 22.6867 14.1172 21.6471 14.1172H10.353Z" fill="#29292E"/>
<path d="M13.6471 8.47047C13.6471 7.95068 14.0684 7.5293 14.5882 7.5293H17.4118C17.9316 7.5293 18.3529 7.95068 18.3529 8.47047V15.0587H13.6471V8.47047Z" fill="#434B52"/>
<path fill-rule="evenodd" clip-rule="evenodd" d="M17.4118 8.47047H14.5882V14.1175H17.4118V8.47047ZM14.5882 7.5293C14.0684 7.5293 13.6471 7.95068 13.6471 8.47047V15.0587H18.3529V8.47047C18.3529 7.95068 17.9316 7.5293 17.4118 7.5293H14.5882Z" fill="#29292E"/>
</svg>
