<svg width="48" height="48" viewBox="0 0 48 48" fill="none" xmlns="http://www.w3.org/2000/svg">
<path d="M28.9565 23.706L27.3059 22.0554C27.0723 21.8218 26.6926 21.8218 26.4591 22.0554L17.7593 30.7552L10.7473 23.7431L17.7461 16.7443L20.2903 19.2789C20.5239 19.5124 20.9024 19.5112 21.1359 19.2777L22.7865 17.6271C23.0213 17.3923 23.0201 17.0126 22.7853 16.779L18.1642 12.1746C17.9306 11.941 17.5521 11.9422 17.3185 12.1758L6.17518 23.3203C5.94161 23.5539 5.94161 23.9336 6.17518 24.1672L17.3197 35.3117C17.5533 35.5453 17.9318 35.5453 18.1666 35.3129L28.9577 24.5541C29.1913 24.3193 29.1913 23.9396 28.9565 23.706Z" fill="white"/>
<path d="M41.825 23.3199L30.6805 12.1753C30.4469 11.9418 30.0684 11.9418 29.8336 12.1741L19.0424 22.933C18.8077 23.1665 18.8077 23.5462 19.0412 23.781L20.6918 25.4316C20.9254 25.6652 21.3051 25.6652 21.5387 25.4316L30.2385 16.7318L37.2505 23.7439L30.2516 30.7427L27.7075 28.2082C27.4739 27.9746 27.0954 27.9758 26.8618 28.2094L25.2112 29.86C24.9764 30.0947 24.9776 30.4744 25.2124 30.708L29.8336 35.3124C30.0672 35.546 30.4457 35.5448 30.6793 35.3112L41.8238 24.1667C42.0585 23.9331 42.0585 23.5534 41.825 23.3199Z" fill="white"/>
</svg>
