<svg width="32" height="32" viewBox="0 0 32 32" fill="none" xmlns="http://www.w3.org/2000/svg">
<path d="M5.64703 7.52981C5.64703 6.49022 6.48979 5.64746 7.52939 5.64746H24.4706C25.5102 5.64746 26.3529 6.49022 26.3529 7.52981V24.471C26.3529 25.5106 25.5102 26.3533 24.4706 26.3533H7.52939C6.48979 26.3533 5.64703 25.5106 5.64703 24.471V7.52981Z" fill="white"/>
<path fill-rule="evenodd" clip-rule="evenodd" d="M24.4706 6.58864H7.52939C7.00959 6.58864 6.58821 7.01002 6.58821 7.52981V24.471C6.58821 24.9908 7.00959 25.4122 7.52939 25.4122H24.4706C24.9904 25.4122 25.4117 24.9908 25.4117 24.471V7.52981C25.4117 7.01002 24.9904 6.58864 24.4706 6.58864ZM7.52939 5.64746C6.48979 5.64746 5.64703 6.49022 5.64703 7.52981V24.471C5.64703 25.5106 6.48979 26.3533 7.52939 26.3533H24.4706C25.5102 26.3533 26.3529 25.5106 26.3529 24.471V7.52981C26.3529 6.49022 25.5102 5.64746 24.4706 5.64746H7.52939Z" fill="#29292E"/>
<path d="M13.8483 20.7058L14.5496 18.5569H17.9209L18.6222 20.7058H20.6939L17.477 11.3896H14.9935L11.7637 20.7058H13.8483ZM15.0385 17.0514L16.2031 13.4871H16.2674L17.4319 17.0514H15.0385Z" fill="#A6ADB4"/>
</svg>
