<svg width="32" height="32" viewBox="0 0 32 32" fill="none" xmlns="http://www.w3.org/2000/svg">
<path fill-rule="evenodd" clip-rule="evenodd" d="M13.647 21.1758C13.9069 21.1758 14.1176 21.3865 14.1176 21.6464V29.6464C14.1176 29.9063 13.9069 30.117 13.647 30.117C13.3871 30.117 13.1765 29.9063 13.1765 29.6464V21.6464C13.1765 21.3865 13.3871 21.1758 13.647 21.1758Z" fill="#29292E"/>
<path fill-rule="evenodd" clip-rule="evenodd" d="M22.1176 22.1172C22.3775 22.1172 22.5882 22.3279 22.5882 22.5878V29.6466C22.5882 29.9065 22.3775 30.1172 22.1176 30.1172C21.8577 30.1172 21.647 29.9065 21.647 29.6466V22.5878C21.647 22.3279 21.8577 22.1172 22.1176 22.1172Z" fill="#29292E"/>
<path d="M14.7183 22.8479C14.8747 23.1608 14.6472 23.529 14.2974 23.529H12.9967C12.6469 23.529 12.4194 23.1608 12.5758 22.8479L13.2261 21.5472C13.3996 21.2004 13.8945 21.2004 14.068 21.5472L14.7183 22.8479Z" fill="#FF6F5F"/>
<path fill-rule="evenodd" clip-rule="evenodd" d="M14.2974 24.4699H12.9967C11.9472 24.4699 11.2647 23.3655 11.734 22.4268L12.3843 21.1261C12.9046 20.0856 14.3895 20.0856 14.9098 21.1261L15.5601 22.4268C16.0295 23.3655 15.3469 24.4699 14.2974 24.4699ZM14.2974 23.5287C14.6472 23.5287 14.8747 23.1606 14.7183 22.8477L14.068 21.547C13.8945 21.2002 13.3996 21.2002 13.2261 21.547L12.5758 22.8477C12.4194 23.1606 12.6469 23.5287 12.9967 23.5287H14.2974Z" fill="#29292E"/>
<path d="M23.1889 23.7893C23.3453 24.1022 23.1178 24.4704 22.768 24.4704H21.4673C21.1175 24.4704 20.8899 24.1022 21.0464 23.7893L21.6967 22.4887C21.8701 22.1418 22.3651 22.1418 22.5385 22.4887L23.1889 23.7893Z" fill="#2765FF"/>
<path fill-rule="evenodd" clip-rule="evenodd" d="M22.768 25.4113H21.4673C20.4178 25.4113 19.7352 24.3069 20.2046 23.3682L20.8549 22.0675C21.3752 21.027 22.8601 21.027 23.3804 22.0675L24.0307 23.3682C24.5 24.3069 23.8174 25.4113 22.768 25.4113ZM22.768 24.4701C23.1178 24.4701 23.3453 24.102 23.1889 23.7891L22.5385 22.4884C22.3651 22.1416 21.8701 22.1416 21.6967 22.4884L21.0464 23.7891C20.8899 24.102 21.1175 24.4701 21.4673 24.4701H22.768Z" fill="#29292E"/>
<path d="M22.4881 12.4452C22.4881 18.0192 18.5074 22.5378 13.597 22.5378C8.68656 22.5378 4.70587 18.0192 4.70587 12.4452C4.70587 6.87116 8.68656 2.35254 13.597 2.35254C18.5074 2.35254 22.4881 6.87116 22.4881 12.4452Z" fill="#FF6F5F"/>
<path fill-rule="evenodd" clip-rule="evenodd" d="M13.597 21.5966C17.8791 21.5966 21.5469 17.615 21.5469 12.4452C21.5469 7.27531 17.8791 3.29372 13.597 3.29372C9.31491 3.29372 5.64705 7.27531 5.64705 12.4452C5.64705 17.615 9.31491 21.5966 13.597 21.5966ZM13.597 22.5378C18.5074 22.5378 22.4881 18.0192 22.4881 12.4452C22.4881 6.87116 18.5074 2.35254 13.597 2.35254C8.68656 2.35254 4.70587 6.87116 4.70587 12.4452C4.70587 18.0192 8.68656 22.5378 13.597 22.5378Z" fill="#29292E"/>
<path d="M27.2941 17.3718C27.2941 20.6896 24.9272 23.3793 22.0075 23.3793C19.0878 23.3793 16.7209 20.6896 16.7209 17.3718C16.7209 14.0539 19.0878 11.3643 22.0075 11.3643C24.9272 11.3643 27.2941 14.0539 27.2941 17.3718Z" fill="#2765FF"/>
<path fill-rule="evenodd" clip-rule="evenodd" d="M22.0075 22.4381C24.298 22.4381 26.3529 20.2865 26.3529 17.3718C26.3529 14.4571 24.298 12.3054 22.0075 12.3054C19.717 12.3054 17.6621 14.4571 17.6621 17.3718C17.6621 20.2865 19.717 22.4381 22.0075 22.4381ZM22.0075 23.3793C24.9272 23.3793 27.2941 20.6896 27.2941 17.3718C27.2941 14.0539 24.9272 11.3643 22.0075 11.3643C19.0878 11.3643 16.7209 14.0539 16.7209 17.3718C16.7209 20.6896 19.0878 23.3793 22.0075 23.3793Z" fill="#29292E"/>
</svg>
