<svg width="32" height="32" viewBox="0 0 32 32" fill="none" xmlns="http://www.w3.org/2000/svg">
<path fill-rule="evenodd" clip-rule="evenodd" d="M8.47061 12.9199C7.43102 12.9199 6.58826 13.7627 6.58826 14.8023V27.2943H16.4706V12.9199H8.47061Z" fill="#FFE090"/>
<path fill-rule="evenodd" clip-rule="evenodd" d="M8.47061 13.8611C7.95081 13.8611 7.52943 14.2825 7.52943 14.8023V26.3531H15.5294V13.8611H8.47061ZM6.58826 14.8023C6.58826 13.7627 7.43102 12.9199 8.47061 12.9199H16.4706V27.2943H6.58826V14.8023Z" fill="#29292E"/>
<path d="M17.4118 4.70605C16.3722 4.70605 15.5294 5.54881 15.5294 6.58841V27.2943H25.4118V6.58841C25.4118 5.54881 24.569 4.70605 23.5294 4.70605H17.4118Z" fill="#FF8C7F"/>
<path fill-rule="evenodd" clip-rule="evenodd" d="M17.4118 5.64723C16.892 5.64723 16.4706 6.06861 16.4706 6.58841V26.3531H24.4706V6.58841C24.4706 6.06861 24.0492 5.64723 23.5294 5.64723H17.4118ZM15.5294 6.58841C15.5294 5.54881 16.3722 4.70605 17.4118 4.70605H23.5294C24.569 4.70605 25.4118 5.54881 25.4118 6.58841V27.2943H15.5294V6.58841Z" fill="#29292E"/>
</svg>
