<svg width="68" height="68" viewBox="0 0 68 68" fill="none" xmlns="http://www.w3.org/2000/svg">
<path d="M58 34C58 47.2548 47.2548 58 34 58C20.7452 58 10 47.2548 10 34C10 20.7452 20.7452 10 34 10C47.2548 10 58 20.7452 58 34Z" fill="#E9EDF0"/>
<path fill-rule="evenodd" clip-rule="evenodd" d="M34 56C46.1503 56 56 46.1503 56 34C56 21.8497 46.1503 12 34 12C21.8497 12 12 21.8497 12 34C12 46.1503 21.8497 56 34 56ZM34 58C47.2548 58 58 47.2548 58 34C58 20.7452 47.2548 10 34 10C20.7452 10 10 20.7452 10 34C10 47.2548 20.7452 58 34 58Z" fill="#29292E"/>
<rect x="33" y="6" width="2" height="10" rx="1" fill="#29292E"/>
<rect x="33" y="52" width="2" height="10" rx="1" fill="#29292E"/>
<rect x="62" y="33" width="2" height="10" rx="1" transform="rotate(90 62 33)" fill="#29292E"/>
<rect x="16" y="33" width="2" height="10" rx="1" transform="rotate(90 16 33)" fill="#29292E"/>
<path d="M25.5901 38.4105C26.6377 36.3946 25.6556 33.81 23.3984 32.6384C21.1413 31.4667 18.4671 32.149 17.4195 34.165C16.3719 36.1809 17.3541 38.7655 19.6112 39.9371C21.8684 41.1088 24.546 40.4265 25.5901 38.4105Z" fill="#FCD2B6"/>
<path fill-rule="evenodd" clip-rule="evenodd" d="M23.8142 37.4907L23.8154 37.4883C24.2579 36.6368 23.9482 35.1772 22.477 34.4135C21.0058 33.6498 19.6373 34.2345 19.1942 35.0872C18.7517 35.9387 19.0614 37.3983 20.5326 38.162C22.0057 38.9267 23.3747 38.3391 23.8142 37.4907ZM23.3984 32.6384C25.6556 33.81 26.6377 36.3946 25.5901 38.4105C24.546 40.4265 21.8684 41.1088 19.6112 39.9371C17.3541 38.7655 16.3719 36.1809 17.4195 34.165C18.4671 32.149 21.1413 31.4667 23.3984 32.6384Z" fill="#29292E"/>
<path d="M48.6372 39.9396C50.8943 38.7679 51.873 36.1834 50.8288 34.1674C49.7847 32.1515 47.1071 31.4692 44.85 32.6408C42.5928 33.8125 41.6141 36.397 42.6583 38.413C43.7059 40.4289 46.38 41.1112 48.6372 39.9396Z" fill="#FCD2B6"/>
<path fill-rule="evenodd" clip-rule="evenodd" d="M47.7157 38.1645C49.1841 37.4022 49.4958 35.9423 49.0529 35.0873C48.6135 34.2388 47.2445 33.6513 45.7714 34.4159C44.3037 35.1778 43.9916 36.6367 44.4336 37.4919C44.8774 38.344 46.2452 38.9278 47.7157 38.1645ZM42.6583 38.413C41.6141 36.397 42.5928 33.8125 44.85 32.6408C47.1071 31.4692 49.7847 32.1515 50.8288 34.1674C51.873 36.1834 50.8943 38.7679 48.6372 39.9396C46.38 41.1112 43.7059 40.4289 42.6583 38.413Z" fill="#29292E"/>
<path d="M34.126 48C40.7149 48 46.0597 42.3002 46.0597 35.2702C46.0597 28.2403 40.7183 22.5405 34.126 22.5405C27.5338 22.5405 22.1924 28.2369 22.1924 35.2702C22.1924 42.3002 27.5338 48 34.126 48Z" fill="#FFDBC2"/>
<path fill-rule="evenodd" clip-rule="evenodd" d="M34.126 46C39.4908 46 44.0597 41.3191 44.0597 35.2702C44.0597 29.221 39.4939 24.5405 34.126 24.5405C28.7579 24.5405 24.1924 29.2179 24.1924 35.2702C24.1924 41.3195 28.7582 46 34.126 46ZM46.0597 35.2702C46.0597 42.3002 40.7149 48 34.126 48C27.5338 48 22.1924 42.3002 22.1924 35.2702C22.1924 28.2369 27.5338 22.5405 34.126 22.5405C40.7183 22.5405 46.0597 28.2403 46.0597 35.2702Z" fill="#29292E"/>
<path d="M31.9613 35.4806C31.9613 36.2984 31.2984 36.9613 30.4806 36.9613C29.6629 36.9613 29 36.2984 29 35.4806C29 34.6629 29.6629 34 30.4806 34C31.2984 34 31.9613 34.6629 31.9613 35.4806Z" fill="#29292E"/>
<path d="M39.3646 35.4806C39.3646 36.2984 38.7017 36.9613 37.884 36.9613C37.0662 36.9613 36.4033 36.2984 36.4033 35.4806C36.4033 34.6629 37.0662 34 37.884 34C38.7017 34 39.3646 34.6629 39.3646 35.4806Z" fill="#29292E"/>
<path d="M22.247 32.269C30.0109 35.1292 36.3413 30.5942 37.606 27.3067C37.7611 26.9001 38.3504 26.9242 38.471 27.3412C39.3669 30.4426 41.0762 31.7659 45.6594 32.3035L46.073 32.1484C47.3825 21.955 41.8894 22.21 38.1539 22.5339C37.1373 20.294 21.606 15.0663 22.0092 32.1863L22.247 32.269Z" fill="#352921"/>
<path fill-rule="evenodd" clip-rule="evenodd" d="M24.015 30.7387C24.1249 27.5671 24.8893 25.577 25.8173 24.3425C26.8509 22.9678 28.2607 22.2996 29.8258 22.0809C31.4297 21.8569 33.1353 22.1219 34.5061 22.5846C35.1862 22.8142 35.7297 23.0744 36.0962 23.3021C36.263 23.4058 36.3581 23.4806 36.4054 23.5206L37.4378 24.1547C37.8029 24.379 38.2302 24.4774 38.6581 24.4536C39.456 24.4093 40.3327 24.4017 40.9759 24.4584C41.7958 24.5306 42.4106 24.7232 42.8608 25.0373C43.4962 25.4808 44.4122 26.6383 44.2544 30.0601C43.0774 29.8168 42.3371 29.5039 41.8364 29.1503C41.2154 28.7115 40.7625 28.0672 40.3924 26.7861C39.7361 24.5171 36.5756 24.4027 35.7383 26.5913C35.3464 27.6065 33.9258 29.2259 31.5615 30.2612C29.533 31.1494 26.9369 31.5424 24.015 30.7387ZM37.606 27.3067C37.5648 27.4137 37.5183 27.522 37.4666 27.6313C37.3239 27.9325 37.1414 28.2419 36.9219 28.5523C36.8861 28.6028 36.8494 28.6534 36.8118 28.704C34.5823 31.6967 28.9487 34.7379 22.247 32.269L22.0092 32.1863C21.6572 17.2414 33.4481 19.3264 37.126 21.5875C37.8483 22.0315 38.7178 22.471 39.5649 22.438C43.1137 22.3001 47.2248 23.1825 46.073 32.1484L45.6594 32.3035C41.9273 31.8657 40.1009 30.907 39.0675 28.8915C39.0355 28.8291 39.0043 28.7656 38.9737 28.7012C38.8244 28.3858 38.6925 28.0457 38.5742 27.6792L38.573 27.6755C38.5378 27.5664 38.5038 27.455 38.471 27.3412C38.3504 26.9242 37.7611 26.9001 37.606 27.3067Z" fill="#29292E"/>
</svg>
