<svg width="68" height="68" viewBox="0 0 68 68" fill="none" xmlns="http://www.w3.org/2000/svg">
<path d="M19.9286 41.1368C21.6616 37.802 20.037 33.5266 16.3031 31.5884C12.5693 29.6502 8.14569 30.7789 6.41274 34.1137C4.67978 37.4485 6.30443 41.7239 10.0383 43.6621C13.7721 45.6003 18.2014 44.4716 19.9286 41.1368Z" fill="#FCD2B6"/>
<path fill-rule="evenodd" clip-rule="evenodd" d="M18.1527 40.2169L18.154 40.2145C19.2818 38.0442 18.3296 34.8937 15.3817 33.3635C12.4338 31.8333 9.31591 32.8644 8.18742 35.036C7.05956 37.2064 8.0118 40.3568 10.9597 41.887C13.9095 43.4182 17.0302 42.3842 18.1527 40.2169ZM19.9286 41.1368C21.6616 37.802 20.037 33.5266 16.3031 31.5884C12.5693 29.6502 8.14569 30.7789 6.41274 34.1137C4.67978 37.4485 6.30443 41.7239 10.0383 43.6621C13.7721 45.6003 18.2014 44.4716 19.9286 41.1368Z" fill="#29292E"/>
<path d="M58.0536 43.667C61.7874 41.7288 63.4063 37.4534 61.6791 34.1186C59.9518 30.7838 55.5225 29.6551 51.7887 31.5933C48.0549 33.5315 46.436 37.8068 48.1632 41.1416C49.8962 44.4764 54.3197 45.6051 58.0536 43.667Z" fill="#FCD2B6"/>
<path fill-rule="evenodd" clip-rule="evenodd" d="M57.1321 41.8919C60.0772 40.3631 61.0291 37.2124 59.9032 35.0385C58.7806 32.8712 55.6599 31.8372 52.7101 33.3684C49.7657 34.8968 48.8136 38.0466 49.9384 40.2205C51.0674 42.3913 54.1847 43.4218 57.1321 41.8919ZM48.1632 41.1416C46.436 37.8068 48.0549 33.5315 51.7887 31.5933C55.5225 29.6551 59.9518 30.7838 61.6791 34.1186C63.4063 37.4534 61.7874 41.7288 58.0536 43.667C54.3197 45.6051 49.8962 44.4764 48.1632 41.1416Z" fill="#29292E"/>
<path d="M34.0487 57.0001C44.9481 57.0001 53.7895 47.5715 53.7895 35.9424C53.7895 24.3134 44.9538 14.8848 34.0487 14.8848C23.1436 14.8848 14.3079 24.3077 14.3079 35.9424C14.3079 47.5715 23.1436 57.0001 34.0487 57.0001Z" fill="#FFDBC2"/>
<path fill-rule="evenodd" clip-rule="evenodd" d="M34.0487 55.0001C43.7239 55.0001 51.7895 46.5904 51.7895 35.9424C51.7895 25.2941 43.7293 16.8848 34.0487 16.8848C24.3678 16.8848 16.3079 25.2888 16.3079 35.9424C16.3079 46.5908 24.3681 55.0001 34.0487 55.0001ZM53.7895 35.9424C53.7895 47.5715 44.9481 57.0001 34.0487 57.0001C23.1436 57.0001 14.3079 47.5715 14.3079 35.9424C14.3079 24.3077 23.1436 14.8848 34.0487 14.8848C44.9538 14.8848 53.7895 24.3134 53.7895 35.9424Z" fill="#29292E"/>
<path d="M24.8365 46.0906C27.9604 46.0906 30.4914 43.6678 30.4914 40.6808C30.4914 37.6937 27.9604 35.271 24.8365 35.271C21.7127 35.271 19.1816 37.6937 19.1816 40.6808C19.1816 43.6678 21.7184 46.0906 24.8365 46.0906Z" fill="#FCCEAE"/>
<path d="M43.5226 46.0901C46.6465 46.0901 49.1775 43.6674 49.1775 40.6803C49.1775 37.6932 46.6465 35.2705 43.5226 35.2705C40.3987 35.2705 37.8677 37.6932 37.8677 40.6803C37.8677 43.6674 40.3987 46.0901 43.5226 46.0901Z" fill="#FCCEAE"/>
<path d="M38.3751 39.2377C39.8344 39.2377 40.5698 37.898 40.5698 36.2392C40.5698 34.586 39.8344 33.2407 38.3751 33.2407C36.9158 33.2407 36.1804 34.5803 36.1804 36.2392C36.1804 37.898 36.9215 39.2377 38.3751 39.2377Z" fill="#352921"/>
<path d="M29.7164 39.2377C31.2271 39.2377 31.9111 37.898 31.9111 36.2392C31.9111 34.586 31.2271 33.2407 29.7164 33.2407C28.2058 33.2407 27.5217 34.5803 27.5217 36.2392C27.5217 37.898 28.2058 39.2377 29.7164 39.2377Z" fill="#352921"/>
<path d="M31.0845 41.2771C31.0845 40.9623 31.3397 40.707 31.6545 40.707H36.785C37.0998 40.707 37.355 40.9623 37.355 41.2771C37.355 41.5919 37.0998 41.8471 36.785 41.8471H31.6545C31.3397 41.8471 31.0845 41.5919 31.0845 41.2771Z" fill="#F2A98F"/>
<path d="M14.3985 30.9777C27.2418 35.7091 37.7136 28.2073 39.8057 22.769C40.0622 22.0963 41.037 22.1362 41.2365 22.826C42.7186 27.9565 45.5461 30.1455 53.1278 31.0347L53.8118 30.7782C55.978 13.9161 46.8914 14.3379 40.7121 14.8738C39.0304 11.1685 13.3382 2.5208 14.0052 30.8409L14.3985 30.9777Z" fill="#352921"/>
<path fill-rule="evenodd" clip-rule="evenodd" d="M15.9939 29.4138C16.0458 23.4072 17.4129 19.5347 19.2589 17.0793C21.2184 14.473 23.8943 13.2281 26.7546 12.8286C29.6537 12.4236 32.6835 12.9036 35.0963 13.7179C36.2974 14.1233 37.2913 14.5936 37.9987 15.0332C38.565 15.3851 38.8005 15.6261 38.8736 15.7009C38.905 15.733 38.9063 15.7344 38.8909 15.7004L39.4755 16.9885L40.8849 16.8663C42.4312 16.7322 44.0007 16.6223 45.495 16.7539C46.982 16.8848 48.2484 17.2451 49.247 17.9419C50.9524 19.132 52.6279 21.897 52.0091 28.867C49.1238 28.4261 47.2935 27.7666 46.0488 26.8873C44.7001 25.9346 43.8211 24.5665 43.1579 22.2709L43.1578 22.2703C42.4226 19.7289 38.8779 19.599 37.9385 22.0524C37.1336 24.1427 34.4707 27.0425 30.3316 28.8549C26.4913 30.5365 21.5306 31.2053 15.9939 29.4138ZM53.1278 31.0347C46.0433 30.2038 43.1099 28.238 41.5464 23.7978C41.5415 23.7838 41.5366 23.7699 41.5317 23.7559C41.4892 23.6341 41.4478 23.5106 41.4073 23.3851C41.4066 23.3831 41.4059 23.381 41.4053 23.379C41.3471 23.1986 41.2909 23.0143 41.2365 22.826C41.037 22.1362 40.0622 22.0963 39.8057 22.769C39.7376 22.946 39.6607 23.1251 39.575 23.306C39.5749 23.3062 39.5748 23.3065 39.5747 23.3067C39.524 23.4137 39.4703 23.5212 39.4137 23.6293C39.4083 23.6394 39.403 23.6496 39.3976 23.6598C36.5833 28.9769 26.5528 35.4554 14.3985 30.9777L14.0052 30.8409C13.3382 2.5208 39.0304 11.1685 40.7121 14.8738C46.8914 14.3379 55.978 13.9161 53.8118 30.7782L53.1278 31.0347Z" fill="#29292E"/>
</svg>
