<svg width="32" height="32" viewBox="0 0 32 32" fill="none" xmlns="http://www.w3.org/2000/svg">
<path d="M9.3782 19.3593C10.1937 17.79 9.42917 15.778 7.67207 14.8659C5.91497 13.9539 3.83328 14.485 3.01778 16.0543C2.20227 17.6236 2.96681 19.6356 4.7239 20.5477C6.481 21.4598 8.56538 20.9286 9.3782 19.3593Z" fill="#FCD2B6"/>
<path fill-rule="evenodd" clip-rule="evenodd" d="M8.54247 18.9264L8.54306 18.9253C9.07381 17.9039 8.6257 16.4214 7.23846 15.7013C5.85123 14.9812 4.38397 15.4664 3.85292 16.4883C3.32216 17.5097 3.77028 18.9922 5.15752 19.7123C6.54565 20.4329 8.01422 19.9463 8.54247 18.9264ZM9.3782 19.3593C10.1937 17.79 9.42917 15.778 7.67207 14.8659C5.91497 13.9539 3.83328 14.485 3.01778 16.0543C2.20227 17.6236 2.96681 19.6356 4.7239 20.5477C6.481 21.4598 8.56538 20.9286 9.3782 19.3593Z" fill="#29292E"/>
<path d="M27.3194 20.5496C29.0765 19.6375 29.8383 17.6256 29.0255 16.0563C28.2127 14.487 26.1283 13.9558 24.3712 14.8679C22.6141 15.78 21.8523 17.7919 22.6651 19.3612C23.4806 20.9305 25.5623 21.4617 27.3194 20.5496Z" fill="#FCD2B6"/>
<path fill-rule="evenodd" clip-rule="evenodd" d="M26.8858 19.7143C28.2717 18.9949 28.7196 17.5122 28.1898 16.4891C27.6615 15.4692 26.1929 14.9827 24.8048 15.7032C23.4192 16.4225 22.9711 17.9047 23.5005 18.9277C24.0317 19.9493 25.4988 20.4342 26.8858 19.7143ZM22.6651 19.3612C21.8523 17.7919 22.6141 15.78 24.3712 14.8679C26.1283 13.9558 28.2127 14.487 29.0255 16.0563C29.8383 17.6256 29.0765 19.6375 27.3194 20.5496C25.5623 21.4617 23.4806 20.9305 22.6651 19.3612Z" fill="#29292E"/>
<path d="M16.023 26.8239C21.1521 26.8239 25.3128 22.3869 25.3128 16.9144C25.3128 11.4419 21.1548 7.00488 16.023 7.00488C10.8912 7.00488 6.73315 11.4392 6.73315 16.9144C6.73315 22.3869 10.8912 26.8239 16.023 26.8239Z" fill="#FFDBC2"/>
<path fill-rule="evenodd" clip-rule="evenodd" d="M16.023 25.8827C20.576 25.8827 24.3716 21.9252 24.3716 16.9144C24.3716 11.9034 20.5785 7.94606 16.023 7.94606C11.4672 7.94606 7.67433 11.9009 7.67433 16.9144C7.67433 21.9254 11.4674 25.8827 16.023 25.8827ZM25.3128 16.9144C25.3128 22.3869 21.1521 26.8239 16.023 26.8239C10.8912 26.8239 6.73315 22.3869 6.73315 16.9144C6.73315 11.4392 10.8912 7.00488 16.023 7.00488C21.1548 7.00488 25.3128 11.4419 25.3128 16.9144Z" fill="#29292E"/>
<path d="M11.6878 21.6902C13.1578 21.6902 14.3489 20.5501 14.3489 19.1444C14.3489 17.7387 13.1578 16.5986 11.6878 16.5986C10.2177 16.5986 9.02664 17.7387 9.02664 19.1444C9.02664 20.5501 10.2204 21.6902 11.6878 21.6902Z" fill="#FCCEAE"/>
<path d="M20.4812 21.6902C21.9513 21.6902 23.1423 20.5501 23.1423 19.1444C23.1423 17.7387 21.9513 16.5986 20.4812 16.5986C19.0111 16.5986 17.8201 17.7387 17.8201 19.1444C17.8201 20.5501 19.0111 21.6902 20.4812 21.6902Z" fill="#FCCEAE"/>
<path d="M18.0589 18.4656C18.7457 18.4656 19.0917 17.8352 19.0917 17.0546C19.0917 16.2766 18.7457 15.6436 18.0589 15.6436C17.3722 15.6436 17.0262 16.274 17.0262 17.0546C17.0262 17.8352 17.3749 18.4656 18.0589 18.4656Z" fill="#352921"/>
<path d="M13.9842 18.4656C14.6951 18.4656 15.017 17.8352 15.017 17.0546C15.017 16.2766 14.6951 15.6436 13.9842 15.6436C13.2733 15.6436 12.9514 16.274 12.9514 17.0546C12.9514 17.8352 13.2733 18.4656 13.9842 18.4656Z" fill="#352921"/>
<path d="M14.628 19.4245C14.628 19.2764 14.7481 19.1562 14.8963 19.1562H17.3106C17.4588 19.1562 17.5789 19.2764 17.5789 19.4245C17.5789 19.5727 17.4588 19.6928 17.3106 19.6928H14.8963C14.7481 19.6928 14.628 19.5727 14.628 19.4245Z" fill="#F2A98F"/>
<path d="M6.77585 14.5782C12.8197 16.8048 17.7477 13.2745 18.7322 10.7153C18.8529 10.3987 19.3116 10.4175 19.4055 10.7421C20.103 13.1564 21.4335 14.1866 25.0014 14.605L25.3233 14.4843C26.3427 6.54922 22.0666 6.74773 19.1587 6.99989C18.3673 5.25621 6.27689 1.18672 6.59075 14.5138L6.77585 14.5782Z" fill="#352921"/>
<path fill-rule="evenodd" clip-rule="evenodd" d="M7.52663 13.8422C7.55102 11.0156 8.19437 9.19324 9.06308 8.03778C9.98518 6.8113 11.2445 6.22546 12.5905 6.03744C13.9547 5.84687 15.3805 6.07272 16.516 6.45595C17.0812 6.64673 17.5489 6.86802 17.8818 7.07491C18.1483 7.24051 18.2591 7.35394 18.2935 7.3891C18.3083 7.40425 18.3089 7.40487 18.3017 7.38889L18.5768 7.99506L19.24 7.93755C19.9677 7.87445 20.7063 7.8227 21.4095 7.88463C22.1093 7.94626 22.7052 8.11579 23.1751 8.44371C23.9777 9.00375 24.7661 10.3049 24.4749 13.5849C23.1172 13.3774 22.2558 13.0671 21.6701 12.6533C21.0354 12.205 20.6218 11.5612 20.3097 10.4809L20.3096 10.4806C19.9637 9.28463 18.2956 9.22352 17.8535 10.3781C17.4747 11.3617 16.2216 12.7264 14.2738 13.5793C12.4666 14.3706 10.1321 14.6853 7.52663 13.8422ZM25.0014 14.605C21.6675 14.214 20.2871 13.2889 19.5513 11.1994C19.549 11.1929 19.5467 11.1863 19.5444 11.1797C19.5244 11.1224 19.5049 11.0643 19.4858 11.0052C19.4855 11.0043 19.4852 11.0033 19.4849 11.0023C19.4575 10.9174 19.4311 10.8307 19.4055 10.7421C19.3116 10.4175 18.8529 10.3987 18.7322 10.7153C18.7001 10.7986 18.6639 10.8829 18.6236 10.968C18.6236 10.9681 18.6235 10.9682 18.6235 10.9683C18.5996 11.0187 18.5744 11.0693 18.5477 11.1201C18.5452 11.1249 18.5427 11.1297 18.5401 11.1345C17.2158 13.6366 12.4955 16.6853 6.77585 14.5782L6.59075 14.5138C6.27689 1.18672 18.3673 5.25621 19.1587 6.99989C22.0666 6.74773 26.3427 6.54922 25.3233 14.4843L25.0014 14.605Z" fill="#29292E"/>
</svg>
