<svg width="32" height="32" viewBox="0 0 32 32" fill="none" xmlns="http://www.w3.org/2000/svg">
<path d="M26.3529 16.0002C26.3529 22.2377 21.2964 27.2943 15.0588 27.2943C8.82126 27.2943 3.76471 22.2377 3.76471 16.0002C3.76471 9.7626 8.82126 4.70605 15.0588 4.70605C21.2964 4.70605 26.3529 9.7626 26.3529 16.0002Z" fill="#099268"/>
<path fill-rule="evenodd" clip-rule="evenodd" d="M15.0588 26.3531C20.7766 26.3531 25.4118 21.7179 25.4118 16.0002C25.4118 10.2824 20.7766 5.64723 15.0588 5.64723C9.34106 5.64723 4.70589 10.2824 4.70589 16.0002C4.70589 21.7179 9.34106 26.3531 15.0588 26.3531ZM15.0588 27.2943C21.2964 27.2943 26.3529 22.2377 26.3529 16.0002C26.3529 9.7626 21.2964 4.70605 15.0588 4.70605C8.82126 4.70605 3.76471 9.7626 3.76471 16.0002C3.76471 22.2377 8.82126 27.2943 15.0588 27.2943Z" fill="#29292E"/>
<path d="M28.7059 24.0006C28.7059 27.1194 26.1776 29.6476 23.0588 29.6476C19.94 29.6476 17.4117 27.1194 17.4117 24.0006C17.4117 20.8818 19.94 18.3535 23.0588 18.3535C26.1776 18.3535 28.7059 20.8818 28.7059 24.0006Z" fill="#FF6F5F"/>
<path fill-rule="evenodd" clip-rule="evenodd" d="M23.0588 28.7065C25.6578 28.7065 27.7647 26.5996 27.7647 24.0006C27.7647 21.4016 25.6578 19.2947 23.0588 19.2947C20.4598 19.2947 18.3529 21.4016 18.3529 24.0006C18.3529 26.5996 20.4598 28.7065 23.0588 28.7065ZM23.0588 29.6476C26.1776 29.6476 28.7059 27.1194 28.7059 24.0006C28.7059 20.8818 26.1776 18.3535 23.0588 18.3535C19.94 18.3535 17.4117 20.8818 17.4117 24.0006C17.4117 27.1194 19.94 29.6476 23.0588 29.6476Z" fill="#29292E"/>
<path fill-rule="evenodd" clip-rule="evenodd" d="M15.5294 15.5295V12.2354H14.5882V15.5295H11.2941V16.4706H14.5882V19.7648H15.5294V16.4706H18.8235V15.5295H15.5294Z" fill="#73E8CC"/>
</svg>
